<?xml version="1.0" encoding="UTF-8"?>
<svg width="135px" height="40px" viewBox="0 0 135 40" version="1.1" xmlns="http://www.w3.org/2000/svg" xmlns:xlink="http://www.w3.org/1999/xlink">
    <!-- Generator: sketchtool 64 (101010) - https://sketch.com -->
    <title>2CA16F74-FB1F-4C24-A71C-A1898F707C0F</title>
    <desc>Created with sketchtool.</desc>
    <defs>
        <path d="M1.435,0.538 C1.145,0.846 0.973,1.324 0.973,1.943 L0.973,1.943 L0.973,24.059 C0.973,24.679 1.145,25.157 1.435,25.464 L1.435,25.464 L1.509,25.536 L13.899,13.147 L13.899,13.001 L13.899,12.855 L1.509,0.465 L1.435,0.538 Z" id="path-1"></path>
        <path d="M0.899,4.855 L0.899,5.001 L0.899,5.147 L5.028,9.278 L5.122,9.226 L10.015,6.446 C11.412,5.651 11.412,4.351 10.015,3.558 L10.015,3.558 L5.122,0.777 L5.029,0.724 L0.899,4.855 Z" id="path-3"></path>
        <path d="M0.435,12.464 C0.896,12.951 1.657,13.012 2.514,12.526 L2.514,12.526 L17.122,4.225 L12.899,0.001 L0.435,12.464 Z" id="path-5"></path>
        <linearGradient x1="86.2464799%" y1="30.9024365%" x2="-50.1367999%" y2="136.010235%" id="linearGradient-7">
            <stop stop-color="#FF3A44" offset="0%"></stop>
            <stop stop-color="#C31162" offset="100%"></stop>
        </linearGradient>
        <path d="M0.435,0.538 L12.899,13.001 L17.122,8.777 L2.514,0.477 C2.112,0.248 1.731,0.14 1.393,0.14 L1.393,0.14 C1.009,0.14 0.68,0.279 0.435,0.538" id="path-8"></path>
    </defs>
    <g id="Home" stroke="none" stroke-width="1" fill="none" fill-rule="evenodd">
        <g id="Renewal-UI" transform="translate(-369.000000, -734.000000)">
            <g id="Group-85" transform="translate(369.000000, 734.000000)">
                <g id="Group-39">
                    <path d="M130,40 L5,40 C2.25,40 0,37.75 0,35 L0,5 C0,2.25 2.25,0 5,0 L130,0 C132.75,0 135,2.25 135,5 L135,35 C135,37.75 132.75,40 130,40" id="Fill-3" fill="#000000"></path>
                    <path d="M130,0 L5,0 C2.25,0 0,2.25 0,5 L0,35 C0,37.75 2.25,40 5,40 L130,40 C132.75,40 135,37.75 135,35 L135,5 C135,2.25 132.75,0 130,0 M130,0.8 C132.316,0.8 134.2,2.684 134.2,5 L134.2,35 C134.2,37.316 132.316,39.2 130,39.2 L5,39.2 C2.684,39.2 0.8,37.316 0.8,35 L0.8,5 C0.8,2.684 2.684,0.8 5,0.8 L130,0.8" id="Fill-5" fill="#A6A6A6"></path>
                    <path d="M106.937,30 L108.802,30 L108.802,17.499 L106.937,17.499 L106.937,30 Z M123.743,22.002 L121.604,27.422 L121.54,27.422 L119.32,22.002 L117.311,22.002 L120.64,29.577 L118.741,33.791 L120.687,33.791 L125.818,22.002 L123.743,22.002 Z M113.16,28.58 C112.55,28.58 111.697,28.274 111.697,27.519 C111.697,26.554 112.759,26.184 113.676,26.184 C114.495,26.184 114.882,26.361 115.38,26.602 C115.235,27.76 114.238,28.58 113.16,28.58 L113.16,28.58 Z M113.386,21.729 C112.035,21.729 110.636,22.324 110.057,23.643 L111.713,24.334 C112.067,23.643 112.727,23.417 113.418,23.417 C114.383,23.417 115.364,23.996 115.38,25.025 L115.38,25.154 C115.042,24.961 114.318,24.672 113.434,24.672 C111.648,24.672 109.831,25.653 109.831,27.486 C109.831,29.159 111.295,30.237 112.936,30.237 C114.189,30.237 114.882,29.674 115.315,29.014 L115.38,29.014 L115.38,29.979 L117.182,29.979 L117.182,25.187 C117.182,22.967 115.524,21.729 113.386,21.729 L113.386,21.729 Z M101.854,23.524 L99.2,23.524 L99.2,19.239 L101.854,19.239 C103.249,19.239 104.041,20.394 104.041,21.381 C104.041,22.35 103.249,23.524 101.854,23.524 L101.854,23.524 Z M101.806,17.499 L97.335,17.499 L97.335,30 L99.2,30 L99.2,25.264 L101.806,25.264 C103.874,25.264 105.907,23.767 105.907,21.381 C105.907,18.996 103.874,17.499 101.806,17.499 L101.806,17.499 Z M77.425,28.583 C76.136,28.583 75.057,27.503 75.057,26.021 C75.057,24.522 76.136,23.427 77.425,23.427 C78.697,23.427 79.696,24.522 79.696,26.021 C79.696,27.503 78.697,28.583 77.425,28.583 L77.425,28.583 Z M79.567,22.702 L79.503,22.702 C79.084,22.203 78.278,21.751 77.264,21.751 C75.137,21.751 73.188,23.621 73.188,26.021 C73.188,28.405 75.137,30.258 77.264,30.258 C78.278,30.258 79.084,29.807 79.503,29.292 L79.567,29.292 L79.567,29.903 C79.567,31.531 78.697,32.4 77.296,32.4 C76.152,32.4 75.443,31.579 75.153,30.886 L73.526,31.563 C73.993,32.69 75.233,34.076 77.296,34.076 C79.487,34.076 81.34,32.787 81.34,29.646 L81.34,22.009 L79.567,22.009 L79.567,22.702 Z M82.629,30 L84.497,30 L84.497,17.499 L82.629,17.499 L82.629,30 Z M87.252,25.876 C87.204,24.232 88.525,23.395 89.476,23.395 C90.217,23.395 90.845,23.766 91.055,24.297 L87.252,25.876 Z M93.052,24.458 C92.697,23.508 91.618,21.751 89.411,21.751 C87.22,21.751 85.399,23.476 85.399,26.005 C85.399,28.389 87.204,30.258 89.62,30.258 C91.569,30.258 92.697,29.066 93.165,28.373 L91.715,27.406 C91.231,28.115 90.571,28.583 89.62,28.583 C88.67,28.583 87.993,28.147 87.559,27.293 L93.245,24.941 L93.052,24.458 Z M47.744,23.057 L47.744,24.861 L52.062,24.861 C51.933,25.876 51.594,26.617 51.079,27.132 C50.45,27.761 49.467,28.454 47.744,28.454 C45.085,28.454 43.007,26.311 43.007,23.653 C43.007,20.995 45.085,18.852 47.744,18.852 C49.178,18.852 50.225,19.416 50.998,20.141 L52.271,18.868 C51.191,17.837 49.758,17.047 47.744,17.047 C44.103,17.047 41.042,20.012 41.042,23.653 C41.042,27.293 44.103,30.258 47.744,30.258 C49.709,30.258 51.191,29.613 52.351,28.405 C53.543,27.213 53.914,25.538 53.914,24.184 C53.914,23.766 53.882,23.379 53.817,23.057 L47.744,23.057 Z M58.822,28.583 C57.534,28.583 56.422,27.519 56.422,26.005 C56.422,24.474 57.534,23.427 58.822,23.427 C60.111,23.427 61.223,24.474 61.223,26.005 C61.223,27.519 60.111,28.583 58.822,28.583 L58.822,28.583 Z M58.822,21.751 C56.47,21.751 54.553,23.54 54.553,26.005 C54.553,28.454 56.47,30.258 58.822,30.258 C61.175,30.258 63.092,28.454 63.092,26.005 C63.092,23.54 61.175,21.751 58.822,21.751 L58.822,21.751 Z M68.136,28.583 C66.847,28.583 65.735,27.519 65.735,26.005 C65.735,24.474 66.847,23.427 68.136,23.427 C69.425,23.427 70.536,24.474 70.536,26.005 C70.536,27.519 69.425,28.583 68.136,28.583 L68.136,28.583 Z M68.136,21.751 C65.784,21.751 63.867,23.54 63.867,26.005 C63.867,28.454 65.784,30.258 68.136,30.258 C70.488,30.258 72.405,28.454 72.405,26.005 C72.405,23.54 70.488,21.751 68.136,21.751 L68.136,21.751 Z" id="Fill-7" fill="#FFFFFF"></path>
                    <g id="Group-12" transform="translate(9.000000, 7.000000)">
                        <mask id="mask-2" fill="white">
                            <use xlink:href="#path-1"></use>
                        </mask>
                        <use id="Clip-11" fill="#00CFFF" xlink:href="#path-1"></use>
                        <path d="M1.435,0.538 C1.145,0.846 0.973,1.324 0.973,1.943 L0.973,1.943 L0.973,24.059 C0.973,24.679 1.145,25.157 1.435,25.464 L1.435,25.464 L1.509,25.536 L13.899,13.147 L13.899,13.001 L13.899,12.855 L1.509,0.465 L1.435,0.538 Z" id="Fill-10" mask="url(#mask-2)"></path>
                    </g>
                    <g id="Group-15" transform="translate(22.000000, 15.000000)">
                        <mask id="mask-4" fill="white">
                            <use xlink:href="#path-3"></use>
                        </mask>
                        <use id="Clip-14" fill="#FFCD00" xlink:href="#path-3"></use>
                        <path d="M0.899,4.855 L0.899,5.001 L0.899,5.147 L5.028,9.278 L5.122,9.226 L10.015,6.446 C11.412,5.651 11.412,4.351 10.015,3.558 L10.015,3.558 L5.122,0.777 L5.029,0.724 L0.899,4.855 Z" id="Fill-13" mask="url(#mask-4)"></path>
                    </g>
                    <g id="Group-18" transform="translate(10.000000, 20.000000)">
                        <mask id="mask-6" fill="white">
                            <use xlink:href="#path-5"></use>
                        </mask>
                        <use id="Clip-17" fill="#00F076" xlink:href="#path-5"></use>
                        <path d="M0.435,12.464 C0.896,12.951 1.657,13.012 2.514,12.526 L2.514,12.526 L17.122,4.225 L12.899,0.001 L0.435,12.464 Z" id="Fill-16" fill="url(#linearGradient-7)" mask="url(#mask-6)"></path>
                    </g>
                    <g id="Group-21" transform="translate(10.000000, 7.000000)">
                        <mask id="mask-9" fill="white">
                            <use xlink:href="#path-8"></use>
                        </mask>
                        <use id="Clip-20" fill="#00F076" xlink:href="#path-8"></use>
                        <path d="M0.435,0.538 L12.899,13.001 L17.122,8.777 L2.514,0.477 C2.112,0.248 1.731,0.14 1.393,0.14 L1.393,0.14 C1.009,0.14 0.68,0.279 0.435,0.538" id="Fill-19" mask="url(#mask-9)"></path>
                    </g>
                    <path d="M27.0288,24.1318 L12.5138,32.3798 C11.7018,32.8398 10.9758,32.8098 10.5098,32.3898 L10.4358,32.4648 L10.5088,32.5368 L10.5098,32.5358 C10.9758,32.9558 11.7018,32.9868 12.5138,32.5258 L27.1218,24.2248 L27.0288,24.1318 Z" id="Fill-22" fill="#000000"></path>
                    <path d="M10.4355,32.3184 C10.1445,32.0104 9.9725,31.5324 9.9725,30.9134 L9.9725,31.0594 C9.9725,31.6784 10.1445,32.1564 10.4355,32.4644 L10.5095,32.3904 L10.4355,32.3184 Z" id="Fill-24" fill="#000000"></path>
                    <path d="M32.0146,21.2988 L27.0286,24.1318 L27.1216,24.2248 L32.0146,21.4448 C32.7136,21.0478 33.0626,20.5248 33.0626,20.0018 C33.0036,20.4748 32.6486,20.9388 32.0146,21.2988" id="Fill-26" fill="#000000"></path>
                    <path d="M12.5137,7.623 L32.0147,18.703 C32.6487,19.063 33.0037,19.527 33.0627021,20.001 C33.0637,19.478 32.7137,18.954 32.0147,18.557 L12.5137,7.477 C11.1157,6.683 9.9727,7.343 9.9727,8.943 L9.9727,9.089 C9.9727,7.489 11.1157,6.829 12.5137,7.623" id="Fill-28" fill="#FFFFFF"></path>
                    <polygon id="Fill-30" fill="#FFFFFF" points="43.689 12.6973 42.953 12.6973 42.953 7.6733 41.353 7.6733 41.353 6.9693 45.289 6.9693 45.289 7.6733 43.689 7.6733"></polygon>
                    <polygon id="Stroke-32" stroke="#FFFFFF" stroke-width="0.2" points="43.689 12.6973 42.953 12.6973 42.953 7.6733 41.353 7.6733 41.353 6.9693 45.289 6.9693 45.289 7.6733 43.689 7.6733"></polygon>
                    <path d="M47.229,6.9243 C47.357,6.5803 47.645,6.5163 47.645,6.2533 C47.645,6.1003 47.533,6.0053 47.381,6.0053 C47.213,6.0053 47.078,6.1493 46.981,6.2843 L46.717,6.1253 C46.862,5.8373 47.101,5.5893 47.509,5.5893 C47.876,5.5893 48.172,5.8373 48.172,6.1653 C48.172,6.5723 47.813,6.6603 47.597,7.0283 L47.229,6.9243 Z M48.205,10.4583 L47.677,8.9073 C47.557,8.5553 47.477,8.2363 47.397,7.9243 L47.381,7.9243 C47.301,8.2433 47.213,8.5713 47.109,8.8993 L46.582,10.4583 L48.205,10.4583 Z M46.438,11.0023 L45.878,12.6973 L45.159,12.6973 L46.99,7.3083 L47.829,7.3083 L49.667,12.6973 L48.924,12.6973 L48.348,11.0023 L46.438,11.0023 Z" id="Fill-34" fill="#FFFFFF"></path>
                    <path d="M47.229,6.9243 C47.357,6.5803 47.645,6.5163 47.645,6.2533 C47.645,6.1003 47.533,6.0053 47.381,6.0053 C47.213,6.0053 47.078,6.1493 46.981,6.2843 L46.717,6.1253 C46.862,5.8373 47.101,5.5893 47.509,5.5893 C47.876,5.5893 48.172,5.8373 48.172,6.1653 C48.172,6.5723 47.813,6.6603 47.597,7.0283 L47.229,6.9243 Z M48.205,10.4583 L47.677,8.9073 C47.557,8.5553 47.477,8.2363 47.397,7.9243 L47.381,7.9243 C47.301,8.2433 47.213,8.5713 47.109,8.8993 L46.582,10.4583 L48.205,10.4583 Z M46.438,11.0023 L45.878,12.6973 L45.159,12.6973 L46.99,7.3083 L47.829,7.3083 L49.667,12.6973 L48.924,12.6973 L48.348,11.0023 L46.438,11.0023 Z" id="Stroke-36" stroke="#FFFFFF" stroke-width="0.2"></path>
                    <polygon id="Fill-38" fill="#FFFFFF" points="50.474 12.697 51.209 12.697 51.209 6.969 50.474 6.969"></polygon>
                    <polygon id="Stroke-40" stroke="#FFFFFF" stroke-width="0.2" points="50.474 12.697 51.209 12.697 51.209 6.969 50.474 6.969"></polygon>
                    <polygon id="Fill-41" fill="#FFFFFF" points="54.1216 12.6973 54.1216 6.9693 55.0176 6.9693 57.8016 11.4253 57.8336 11.4253 57.8016 10.3213 57.8016 6.9693 58.5376 6.9693 58.5376 12.6973 57.7686 12.6973 54.8566 8.0253 54.8256 8.0253 54.8566 9.1293 54.8566 12.6973"></polygon>
                    <polygon id="Stroke-42" stroke="#FFFFFF" stroke-width="0.2" points="54.1216 12.6973 54.1216 6.9693 55.0176 6.9693 57.8016 11.4253 57.8336 11.4253 57.8016 10.3213 57.8016 6.9693 58.5376 6.9693 58.5376 12.6973 57.7686 12.6973 54.8566 8.0253 54.8256 8.0253 54.8566 9.1293 54.8566 12.6973"></polygon>
                    <path d="M61.6245,13.7368 C61.6245,13.5288 61.8005,13.3368 62.0325,13.3368 C62.2485,13.3368 62.4165,13.5288 62.4165,13.7368 C62.4165,13.9448 62.2485,14.1448 62.0245,14.1448 C61.8005,14.1448 61.6245,13.9448 61.6245,13.7368 L61.6245,13.7368 Z M62.2805,6.0848 L63.1195,6.9958 L62.5275,6.9958 L62.0165,6.4448 L62.0005,6.4448 L61.4965,6.9958 L60.9215,6.9958 L61.7445,6.0848 L62.2805,6.0848 Z M60.2975,10.0348 C60.2975,11.1858 60.9215,12.2178 62.0165,12.2178 C63.1195,12.2178 63.7435,11.2018 63.7435,9.9788 C63.7435,8.9068 63.1845,7.7878 62.0245,7.7878 C60.8735,7.7878 60.2975,8.8518 60.2975,10.0348 L60.2975,10.0348 Z M64.4785,9.9468 C64.4785,11.8018 63.3525,12.7848 61.9775,12.7848 C60.5535,12.7848 59.5545,11.6818 59.5545,10.0508 C59.5545,8.3398 60.6175,7.2198 62.0565,7.2198 C63.5275,7.2198 64.4785,8.3478 64.4785,9.9468 L64.4785,9.9468 Z" id="Fill-43" fill="#FFFFFF"></path>
                    <path d="M61.6245,13.7368 C61.6245,13.5288 61.8005,13.3368 62.0325,13.3368 C62.2485,13.3368 62.4165,13.5288 62.4165,13.7368 C62.4165,13.9448 62.2485,14.1448 62.0245,14.1448 C61.8005,14.1448 61.6245,13.9448 61.6245,13.7368 Z M62.2805,6.0848 L63.1195,6.9958 L62.5275,6.9958 L62.0165,6.4448 L62.0005,6.4448 L61.4965,6.9958 L60.9215,6.9958 L61.7445,6.0848 L62.2805,6.0848 Z M60.2975,10.0348 C60.2975,11.1858 60.9215,12.2178 62.0165,12.2178 C63.1195,12.2178 63.7435,11.2018 63.7435,9.9788 C63.7435,8.9068 63.1845,7.7878 62.0245,7.7878 C60.8735,7.7878 60.2975,8.8518 60.2975,10.0348 Z M64.4785,9.9468 C64.4785,11.8018 63.3525,12.7848 61.9775,12.7848 C60.5535,12.7848 59.5545,11.6818 59.5545,10.0508 C59.5545,8.3398 60.6175,7.2198 62.0565,7.2198 C63.5275,7.2198 64.4785,8.3478 64.4785,9.9468 Z" id="Stroke-44" stroke="#FFFFFF" stroke-width="0.2"></path>
                    <polygon id="Fill-45" fill="#FFFFFF" points="65.517 12.697 66.252 12.697 66.252 6.969 65.517 6.969"></polygon>
                    <polygon id="Stroke-46" stroke="#FFFFFF" stroke-width="0.2" points="65.517 12.697 66.252 12.697 66.252 6.969 65.517 6.969"></polygon>
                    <path d="M69.9004,11.9932 L70.9174,11.9932 C71.5784,11.9932 72.1024,11.8042 72.4894,11.4252 C72.8764,11.0472 73.0694,10.5162 73.0694,9.8332 C73.0694,9.1562 72.8764,8.6272 72.4894,8.2452 C72.1024,7.8642 71.5784,7.6732 70.9174,7.6732 L69.9004,7.6732 L69.9004,11.9932 Z M69.1654,12.6972 L69.1654,6.9692 L70.9174,6.9692 C71.7964,6.9692 72.5014,7.2342 73.0294,7.7652 C73.5564,8.2962 73.8214,8.9852 73.8214,9.8332 C73.8214,10.6812 73.5564,11.3702 73.0294,11.9012 C72.5014,12.4322 71.7964,12.6972 70.9174,12.6972 L69.1654,12.6972 Z" id="Fill-47" fill="#FFFFFF"></path>
                    <path d="M69.9004,11.9932 L70.9174,11.9932 C71.5784,11.9932 72.1024,11.8042 72.4894,11.4252 C72.8764,11.0472 73.0694,10.5162 73.0694,9.8332 C73.0694,9.1562 72.8764,8.6272 72.4894,8.2452 C72.1024,7.8642 71.5784,7.6732 70.9174,7.6732 L69.9004,7.6732 L69.9004,11.9932 Z M69.1654,12.6972 L69.1654,6.9692 L70.9174,6.9692 C71.7964,6.9692 72.5014,7.2342 73.0294,7.7652 C73.5564,8.2962 73.8214,8.9852 73.8214,9.8332 C73.8214,10.6812 73.5564,11.3702 73.0294,11.9012 C72.5014,12.4322 71.7964,12.6972 70.9174,12.6972 L69.1654,12.6972 Z" id="Stroke-48" stroke="#FFFFFF" stroke-width="0.2"></path>
                    <path d="M76.8828,12.8252 C76.2528,12.8252 75.7418,12.6172 75.3508,12.2012 C74.9578,11.7852 74.7628,11.2412 74.7628,10.5692 L74.7628,6.9692 L75.4978,6.9692 L75.4978,10.6012 C75.4978,11.0542 75.6168,11.4212 75.8548,11.7012 C76.0918,11.9812 76.4348,12.1212 76.8828,12.1212 C77.3298,12.1212 77.6728,11.9812 77.9098,11.7012 C78.1478,11.4212 78.2668,11.0542 78.2668,10.6012 L78.2668,6.9692 L79.0028,6.9692 L79.0028,10.5692 C79.0028,11.2462 78.8118,11.7922 78.4308,12.2052 C78.0488,12.6182 77.5328,12.8252 76.8828,12.8252" id="Fill-49" fill="#FFFFFF"></path>
                    <path d="M76.8828,12.8252 C76.2528,12.8252 75.7418,12.6172 75.3508,12.2012 C74.9578,11.7852 74.7628,11.2412 74.7628,10.5692 L74.7628,6.9692 L75.4978,6.9692 L75.4978,10.6012 C75.4978,11.0542 75.6168,11.4212 75.8548,11.7012 C76.0918,11.9812 76.4348,12.1212 76.8828,12.1212 C77.3298,12.1212 77.6728,11.9812 77.9098,11.7012 C78.1478,11.4212 78.2668,11.0542 78.2668,10.6012 L78.2668,6.9692 L79.0028,6.9692 L79.0028,10.5692 C79.0028,11.2462 78.8118,11.7922 78.4308,12.2052 C78.0488,12.6182 77.5328,12.8252 76.8828,12.8252 Z" id="Stroke-50" stroke="#FFFFFF" stroke-width="0.2"></path>
                    <polygon id="Fill-51" fill="#FFFFFF" points="80.2568 12.6973 80.2568 6.9693 81.1528 6.9693 83.9368 11.4253 83.9688 11.4253 83.9368 10.3213 83.9368 6.9693 84.6728 6.9693 84.6728 12.6973 83.9038 12.6973 80.9918 8.0253 80.9608 8.0253 80.9918 9.1293 80.9918 12.6973"></polygon>
                    <polygon id="Stroke-52" stroke="#FFFFFF" stroke-width="0.2" points="80.2568 12.6973 80.2568 6.9693 81.1528 6.9693 83.9368 11.4253 83.9688 11.4253 83.9368 10.3213 83.9368 6.9693 84.6728 6.9693 84.6728 12.6973 83.9038 12.6973 80.9918 8.0253 80.9608 8.0253 80.9918 9.1293 80.9918 12.6973"></polygon>
                    <path d="M91.502,10.0654 C91.502,10.8654 91.265,11.5024 90.79,11.9774 C90.251,12.5434 89.55,12.8254 88.687,12.8254 C87.859,12.8254 87.156,12.5384 86.578,11.9654 C85.999,11.3924 85.71,10.6814 85.71,9.8334 C85.71,8.9854 85.999,8.2744 86.578,7.7014 C87.156,7.1274 87.859,6.8414 88.687,6.8414 C89.097,6.8414 89.488,6.9214 89.862,7.0814 C90.235,7.2414 90.534,7.4544 90.758,7.7214 L90.254,8.2254 C89.875,7.7724 89.353,7.5444 88.687,7.5444 C88.083,7.5444 87.563,7.7574 87.122,8.1814 C86.682,8.6054 86.462,9.1564 86.462,9.8334 C86.462,10.5104 86.682,11.0614 87.122,11.4854 C87.563,11.9094 88.083,12.1214 88.687,12.1214 C89.326,12.1214 89.859,11.9084 90.286,11.4814 C90.564,11.2044 90.724,10.8174 90.766,10.3214 L88.687,10.3214 L88.687,9.6334 L91.462,9.6334 C91.488,9.7824 91.502,9.9264 91.502,10.0654" id="Fill-53" fill="#FFFFFF"></path>
                    <path d="M91.502,10.0654 C91.502,10.8654 91.265,11.5024 90.79,11.9774 C90.251,12.5434 89.55,12.8254 88.687,12.8254 C87.859,12.8254 87.156,12.5384 86.578,11.9654 C85.999,11.3924 85.71,10.6814 85.71,9.8334 C85.71,8.9854 85.999,8.2744 86.578,7.7014 C87.156,7.1274 87.859,6.8414 88.687,6.8414 C89.097,6.8414 89.488,6.9214 89.862,7.0814 C90.235,7.2414 90.534,7.4544 90.758,7.7214 L90.254,8.2254 C89.875,7.7724 89.353,7.5444 88.687,7.5444 C88.083,7.5444 87.563,7.7574 87.122,8.1814 C86.682,8.6054 86.462,9.1564 86.462,9.8334 C86.462,10.5104 86.682,11.0614 87.122,11.4854 C87.563,11.9094 88.083,12.1214 88.687,12.1214 C89.326,12.1214 89.859,11.9084 90.286,11.4814 C90.564,11.2044 90.724,10.8174 90.766,10.3214 L88.687,10.3214 L88.687,9.6334 L91.462,9.6334 C91.488,9.7824 91.502,9.9264 91.502,10.0654 Z" id="Stroke-54" stroke="#FFFFFF" stroke-width="0.2"></path>
                    <polygon id="Fill-55" fill="#FFFFFF" points="96.1104 12.6973 95.3744 12.6973 95.3744 7.6733 93.7744 7.6733 93.7744 6.9693 97.7104 6.9693 97.7104 7.6733 96.1104 7.6733"></polygon>
                    <polygon id="Stroke-56" stroke="#FFFFFF" stroke-width="0.2" points="96.1104 12.6973 95.3744 12.6973 95.3744 7.6733 93.7744 7.6733 93.7744 6.9693 97.7104 6.9693 97.7104 7.6733 96.1104 7.6733"></polygon>
                    <path d="M99.2666,9.6895 L100.4516,9.6895 C100.7446,9.6895 100.9956,9.5935 101.2066,9.4015 C101.4176,9.2095 101.5236,8.9665 101.5236,8.6735 C101.5236,8.4225 101.4296,8.1935 101.2436,7.9855 C101.0566,7.7775 100.8086,7.6735 100.4986,7.6735 L99.2666,7.6735 L99.2666,9.6895 Z M98.5316,12.6975 L98.5316,6.9695 L100.4836,6.9695 C100.9686,6.9695 101.3886,7.1305 101.7436,7.4535 C102.0976,7.7765 102.2756,8.1825 102.2756,8.6735 C102.2756,9.0735 102.1446,9.4265 101.8826,9.7335 C101.6216,10.0405 101.2956,10.2335 100.9076,10.3135 L100.8906,10.3365 L102.4986,12.6655 L102.4986,12.6975 L101.6266,12.6975 L100.0826,10.3765 L99.2666,10.3765 L99.2666,12.6975 L98.5316,12.6975 Z" id="Fill-57" fill="#FFFFFF"></path>
                    <path d="M99.2666,9.6895 L100.4516,9.6895 C100.7446,9.6895 100.9956,9.5935 101.2066,9.4015 C101.4176,9.2095 101.5236,8.9665 101.5236,8.6735 C101.5236,8.4225 101.4296,8.1935 101.2436,7.9855 C101.0566,7.7775 100.8086,7.6735 100.4986,7.6735 L99.2666,7.6735 L99.2666,9.6895 Z M98.5316,12.6975 L98.5316,6.9695 L100.4836,6.9695 C100.9686,6.9695 101.3886,7.1305 101.7436,7.4535 C102.0976,7.7765 102.2756,8.1825 102.2756,8.6735 C102.2756,9.0735 102.1446,9.4265 101.8826,9.7335 C101.6216,10.0405 101.2956,10.2335 100.9076,10.3135 L100.8906,10.3365 L102.4986,12.6655 L102.4986,12.6975 L101.6266,12.6975 L100.0826,10.3765 L99.2666,10.3765 L99.2666,12.6975 L98.5316,12.6975 Z" id="Stroke-58" stroke="#FFFFFF" stroke-width="0.2"></path>
                    <path d="M103.8643,6.4731 L103.8643,6.4331 L104.6883,5.4971 L105.3293,5.4971 L106.1523,6.4331 L106.1523,6.4731 L105.4403,6.4731 L105.0413,5.9931 L104.9763,5.9931 L104.5773,6.4731 L103.8643,6.4731 Z M106.6803,7.6731 L104.0723,7.6731 L104.0723,9.4891 L106.4253,9.4891 L106.4253,10.1771 L104.0723,10.1771 L104.0723,11.9931 L106.6803,11.9931 L106.6803,12.6971 L103.3373,12.6971 L103.3373,6.9691 L106.6803,6.9691 L106.6803,7.6731 Z" id="Fill-59" fill="#FFFFFF"></path>
                    <path d="M103.8643,6.4731 L103.8643,6.4331 L104.6883,5.4971 L105.3293,5.4971 L106.1523,6.4331 L106.1523,6.4731 L105.4403,6.4731 L105.0413,5.9931 L104.9763,5.9931 L104.5773,6.4731 L103.8643,6.4731 Z M106.6803,7.6731 L104.0723,7.6731 L104.0723,9.4891 L106.4253,9.4891 L106.4253,10.1771 L104.0723,10.1771 L104.0723,11.9931 L106.6803,11.9931 L106.6803,12.6971 L103.3373,12.6971 L103.3373,6.9691 L106.6803,6.9691 L106.6803,7.6731 Z" id="Stroke-60" stroke="#FFFFFF" stroke-width="0.2"></path>
                    <polygon id="Fill-61" fill="#FFFFFF" points="107.751 12.6973 107.751 6.9693 108.647 6.9693 111.431 11.4253 111.463 11.4253 111.431 10.3213 111.431 6.9693 112.167 6.9693 112.167 12.6973 111.398 12.6973 108.486 8.0253 108.455 8.0253 108.486 9.1293 108.486 12.6973"></polygon>
                    <polygon id="Stroke-62" stroke="#FFFFFF" stroke-width="0.2" points="107.751 12.6973 107.751 6.9693 108.647 6.9693 111.431 11.4253 111.463 11.4253 111.431 10.3213 111.431 6.9693 112.167 6.9693 112.167 12.6973 111.398 12.6973 108.486 8.0253 108.455 8.0253 108.486 9.1293 108.486 12.6973"></polygon>
                </g>
            </g>
        </g>
    </g>
</svg>