<?xml version="1.0" encoding="UTF-8"?>
<svg width="32px" height="32px" viewBox="0 0 32 32" version="1.1" xmlns="http://www.w3.org/2000/svg" xmlns:xlink="http://www.w3.org/1999/xlink">
    <!-- Generator: sketchtool 64 (101010) - https://sketch.com -->
    <title>6E3EBA45-5CAE-4939-89B7-C78B2557F674</title>
    <desc>Created with sketchtool.</desc>
    <g id="Home" stroke="none" stroke-width="1" fill="none" fill-rule="evenodd">
        <g id="Renewal-UI" transform="translate(-146.000000, -711.000000)" fill="#FF0000">
            <path d="M162,734.946801 L154.404837,738.982778 C153.917133,739.241938 153.311681,739.056667 153.052521,738.568963 C152.947901,738.372082 152.912075,738.145886 152.950735,737.926312 L154.442144,729.455696 L154.442144,729.455696 L148.256666,723.479452 C147.859482,723.095704 147.84859,722.462632 148.232339,722.065448 C148.387254,721.905109 148.591309,721.801138 148.812083,721.770054 L157.328988,720.570903 L157.328988,720.570903 L161.101316,712.841404 C161.343546,712.345074 161.942267,712.139086 162.438596,712.381316 C162.63896,712.479102 162.800898,712.64104 162.898684,712.841404 L166.671012,720.570903 L166.671012,720.570903 L175.187917,721.770054 C175.734807,721.847054 176.115729,722.352818 176.038728,722.899708 C176.007644,723.120482 175.903673,723.324537 175.743334,723.479452 L169.557856,729.455696 L169.557856,729.455696 L171.049265,737.926312 C171.145032,738.47023 170.781733,738.988797 170.237815,739.084564 C170.018241,739.123224 169.792044,739.087398 169.595163,738.982778 L162,734.946801 L162,734.946801 Z" id="Star"></path>
        </g>
    </g>
</svg>